<svg style="display:none"><symbol id="fly"><path d="M95 82.273 68.13 35.731h14.772v-4.986H65.251L47.5 0 29.748 30.745h-17.65v4.986H26.87L0 82.273zM24.672 49.512h13.852c4.351 0 7.891 3.539 7.891 7.89a5.82 5.82 0 0 1-5.814 5.814 4.16 4.16 0 0 1-4.152-4.153 2.826 2.826 0 0 1 2.823-2.824c.97 0 1.76.791 1.76 1.761a2.493 2.493 0 1 0 4.986 0 6.754 6.754 0 0 0-6.746-6.747c-4.306 0-7.81 3.504-7.81 7.81 0 .645.07 1.276.198 1.884a11.52 11.52 0 0 0-7.705-2.957 9.7 9.7 0 0 0-4.972 1.375zm26.729 7.89c0-.284-.024-.563-.043-.841.085 0 .17.011.254.011 1.614 0 3.196-.28 4.682-.818a9.07 9.07 0 0 0-1.764 5.374c0 4.306 3.504 7.81 7.809 7.81a6.754 6.754 0 0 0 6.747-6.747 2.493 2.493 0 1 0-4.986 0c0 .97-.79 1.761-1.761 1.761a2.827 2.827 0 0 1-2.823-2.824 4.16 4.16 0 0 1 4.153-4.153 5.82 5.82 0 0 1 5.813 5.814c0 4.352-3.539 7.891-7.89 7.891H35.496q.045-.546.046-1.103c0-1.131-.17-2.222-.474-3.258a9.08 9.08 0 0 0 5.533 1.883c5.955 0 10.8-4.846 10.8-10.8m29.008 13.994a5.13 5.13 0 0 1-5.121 5.123 3.604 3.604 0 0 1-3.599-3.599 2.383 2.383 0 0 1 2.38-2.381c.066 0 .169.055.256.123a2.493 2.493 0 0 0 3.264 3.761c1.651-1.297 2.266-3.293 1.604-5.208-.723-2.092-2.83-3.611-5.033-3.654.081-.366.141-.738.19-1.114 3.417.473 6.059 3.405 6.059 6.949m-46.268 4.27h27.451c1.878 0 3.657-.413 5.267-1.138.189.99.551 1.919 1.05 2.758H33.211q.52-.778.93-1.62m49.345 1.62a10 10 0 0 0 1.36-2.629l1.517 2.629zm-7.251-17.543a12 12 0 0 0-2.314-.329c-1.422-4.306-5.477-7.425-10.252-7.425a9 9 0 0 0-2.024.234q.528-.557 1.001-1.18c3.557-4.726 2.935-11.309-1.224-15.312h.95zM47.5 9.973l11.993 20.772H35.506zm.068 25.758a10 10 0 0 0-.889 1.011c-2.757 3.662-2.022 8.884 1.641 11.642 3.148 2.37 7.641 1.737 10.012-1.41a2.495 2.495 0 0 0-.49-3.493 2.495 2.495 0 0 0-3.492.493 2.167 2.167 0 0 1-3.031.427 3.3 3.3 0 0 1-1.293-2.193 3.3 3.3 0 0 1 .636-2.466 4.74 4.74 0 0 1 3.153-1.858 4.75 4.75 0 0 1 3.544.913c2.909 2.189 3.493 6.338 1.304 9.246a8.83 8.83 0 0 1-8.743 3.381c-2.158-4.096-6.453-6.899-11.396-6.899H27.55l5.077-8.794zM14.191 67.665l-.005.093c0 4.585 3.729 8.313 8.313 8.313 3.943 0 7.151-3.208 7.151-7.15a2.493 2.493 0 0 0-4.987 0 2.166 2.166 0 0 1-2.164 2.164 3.33 3.33 0 0 1-3.327-3.327 4.79 4.79 0 0 1 4.783-4.782 6.61 6.61 0 0 1 6.601 6.601c0 3.235-1.725 6.134-4.516 7.709H8.636z"/></symbol><symbol id="swim"><path d="M95 0H0l47.5 82.273zM54.504 56.531c-1.765 0-2.768.602-3.432 1-.418.251-.483.29-.866.29-.384 0-.447-.039-.865-.29-.663-.398-1.666-1-3.431-1-1.764 0-2.766.602-3.429 1.001-.417.251-.48.289-.862.289-.381 0-.445-.038-.861-.289-.508-.305-1.216-.726-2.309-.909l-3.359-5.817c.401.055.828.094 1.309.094 2.403 0 3.735-.799 4.707-1.383.745-.447 1.119-.672 2.139-.672 1.023 0 1.398.225 2.144.672.973.585 2.305 1.383 4.708 1.383s3.738-.798 4.711-1.382c.747-.448 1.122-.673 2.146-.673 1.025 0 1.4.225 2.147.673.339.203.725.431 1.181.643l-3.845 6.659a6.2 6.2 0 0 0-1.933-.289M27.944 38.43c1.179.633 2.696 1.223 5.064 1.223 3.065 0 4.71-.986 6.032-1.78 1.074-.644 1.783-1.069 3.468-1.069 1.683 0 2.392.425 3.466 1.069 1.321.793 2.966 1.78 6.031 1.78 3.066 0 4.712-.986 6.034-1.78 1.075-.644 1.784-1.069 3.47-1.069s2.395.425 3.47 1.07c.532.319 1.124.668 1.835.974l-4.012 6.948c-.388-.109-.7-.293-1.137-.555-.973-.583-2.307-1.382-4.711-1.382s-3.737.799-4.71 1.382c-.747.448-1.122.673-2.147.673-1.022 0-1.397-.225-2.144-.672-.972-.584-2.304-1.383-4.708-1.383-2.402 0-3.734.8-4.705 1.383-.746.447-1.12.672-2.141.672-1.022 0-1.396-.225-2.142-.672-.73-.438-1.663-.998-3.101-1.249zm-7.301-12.648c.354.187.705.396 1.083.623 1.627.976 3.652 2.192 7.403 2.192s5.777-1.216 7.404-2.192c1.434-.86 2.47-1.482 4.84-1.482s3.404.622 4.837 1.482c1.627.976 3.652 2.192 7.403 2.192 3.752 0 5.779-1.216 7.407-2.192 1.434-.86 2.47-1.482 4.841-1.482s3.408.622 4.842 1.482c.724.434 1.538.911 2.537 1.311l-3.895 6.747c-.657-.185-1.168-.486-1.802-.866-1.322-.793-2.968-1.78-6.034-1.78s-4.712.987-6.034 1.78c-1.074.644-1.784 1.07-3.47 1.07-1.684 0-2.393-.426-3.466-1.069-1.322-.794-2.967-1.781-6.031-1.781-3.066 0-4.711.987-6.033 1.781-1.074.643-1.783 1.069-3.467 1.069s-2.393-.426-3.467-1.069c-1.225-.736-2.744-1.628-5.4-1.755zm52.625-3.653c-1.628-.977-3.654-2.192-7.407-2.192-3.752 0-5.778 1.215-7.406 2.192-1.434.86-2.47 1.481-4.842 1.481-2.369 0-3.405-.621-4.837-1.481-1.627-.977-3.653-2.192-7.403-2.192-3.752 0-5.777 1.215-7.405 2.192-1.433.86-2.469 1.481-4.839 1.481-2.369 0-3.405-.621-4.837-1.481-1.568-.941-3.521-2.093-7.015-2.176l-3.82-6.617c1.071.344 1.93.847 2.89 1.424 2.027 1.216 4.324 2.595 8.747 2.595 4.424 0 6.721-1.379 8.749-2.595 1.755-1.053 3.141-1.884 6.184-1.884s4.43.831 6.185 1.884c2.027 1.216 4.325 2.595 8.749 2.595s6.723-1.379 8.751-2.595c1.755-1.053 3.141-1.884 6.185-1.884s4.43.831 6.186 1.884c1.043.625 2.164 1.291 3.602 1.793l-3.91 6.773c-.936-.262-1.654-.685-2.507-1.197M86.363 4.986l-4.108 7.117c-1.431-.326-2.443-.92-3.607-1.618-2.028-1.217-4.327-2.596-8.751-2.596-4.425 0-6.723 1.379-8.751 2.596-1.755 1.052-3.141 1.884-6.185 1.884-3.042 0-4.429-.832-6.184-1.884-2.028-1.217-4.326-2.596-8.75-2.596s-6.721 1.379-8.749 2.596c-1.755 1.052-3.141 1.884-6.184 1.884-3.041 0-4.427-.832-6.181-1.884-2.003-1.202-4.278-2.558-8.598-2.59L8.636 4.986zM42.009 62.79c1.52-.082 2.428-.617 3.04-.984.416-.251.48-.289.861-.289.383 0 .447.039.864.29.664.398 1.666 1 3.432 1 1.664 0 2.648-.534 3.311-.929L47.5 72.3z"/></symbol></svg>
