<svg xmlns="http://www.w3.org/2000/svg" viewBox="0 0 95 82.3"><path d="M95 82.273 68.13 35.731h14.772v-4.986H65.251L47.5 0 29.748 30.745h-17.65v4.986H26.87L0 82.273zM24.672 49.512h13.852c4.351 0 7.891 3.539 7.891 7.89a5.82 5.82 0 0 1-5.814 5.814 4.16 4.16 0 0 1-4.152-4.153 2.826 2.826 0 0 1 2.823-2.824c.97 0 1.76.791 1.76 1.761a2.493 2.493 0 1 0 4.986 0 6.754 6.754 0 0 0-6.746-6.747c-4.306 0-7.81 3.504-7.81 7.81 0 .645.07 1.276.198 1.884a11.52 11.52 0 0 0-7.705-2.957 9.7 9.7 0 0 0-4.972 1.375zm26.729 7.89c0-.284-.024-.563-.043-.841.085 0 .17.011.254.011 1.614 0 3.196-.28 4.682-.818a9.07 9.07 0 0 0-1.764 5.374c0 4.306 3.504 7.81 7.809 7.81a6.754 6.754 0 0 0 6.747-6.747 2.493 2.493 0 1 0-4.986 0c0 .97-.79 1.761-1.761 1.761a2.827 2.827 0 0 1-2.823-2.824 4.16 4.16 0 0 1 4.153-4.153 5.82 5.82 0 0 1 5.813 5.814c0 4.352-3.539 7.891-7.89 7.891H35.496q.045-.546.046-1.103c0-1.131-.17-2.222-.474-3.258a9.08 9.08 0 0 0 5.533 1.883c5.955 0 10.8-4.846 10.8-10.8m29.008 13.994a5.13 5.13 0 0 1-5.121 5.123 3.604 3.604 0 0 1-3.599-3.599 2.383 2.383 0 0 1 2.38-2.381c.066 0 .169.055.256.123a2.493 2.493 0 0 0 3.264 3.761c1.651-1.297 2.266-3.293 1.604-5.208-.723-2.092-2.83-3.611-5.033-3.654.081-.366.141-.738.19-1.114 3.417.473 6.059 3.405 6.059 6.949m-46.268 4.27h27.451c1.878 0 3.657-.413 5.267-1.138.189.99.551 1.919 1.05 2.758H33.211q.52-.778.93-1.62m49.345 1.62a10 10 0 0 0 1.36-2.629l1.517 2.629zm-7.251-17.543a12 12 0 0 0-2.314-.329c-1.422-4.306-5.477-7.425-10.252-7.425a9 9 0 0 0-2.024.234q.528-.557 1.001-1.18c3.557-4.726 2.935-11.309-1.224-15.312h.95zM47.5 9.973l11.993 20.772H35.506zm.068 25.758a10 10 0 0 0-.889 1.011c-2.757 3.662-2.022 8.884 1.641 11.642 3.148 2.37 7.641 1.737 10.012-1.41a2.495 2.495 0 0 0-.49-3.493 2.495 2.495 0 0 0-3.492.493 2.167 2.167 0 0 1-3.031.427 3.3 3.3 0 0 1-1.293-2.193 3.3 3.3 0 0 1 .636-2.466 4.74 4.74 0 0 1 3.153-1.858 4.75 4.75 0 0 1 3.544.913c2.909 2.189 3.493 6.338 1.304 9.246a8.83 8.83 0 0 1-8.743 3.381c-2.158-4.096-6.453-6.899-11.396-6.899H27.55l5.077-8.794zM14.191 67.665l-.005.093c0 4.585 3.729 8.313 8.313 8.313 3.943 0 7.151-3.208 7.151-7.15a2.493 2.493 0 0 0-4.987 0 2.166 2.166 0 0 1-2.164 2.164 3.33 3.33 0 0 1-3.327-3.327 4.79 4.79 0 0 1 4.783-4.782 6.61 6.61 0 0 1 6.601 6.601c0 3.235-1.725 6.134-4.516 7.709H8.636z"/></svg>
