<svg xmlns="http://www.w3.org/2000/svg" viewBox="0 0 24 24">
  <defs>
    <symbol id="star" viewBox="0 0 24 24">
      <path d="M12 17.27L18.18 21l-1.64-7.03L22 9.24l-7.19-.62L12 2L9.19 8.62L2 9.24l5.45 4.73L5.82 21z" />
    </symbol>
    <symbol id="rating" viewBox="0 0 24 24">
      <use href="#star" width="50%" height="50%" fill="var(--star-1)" />
      <use href="#star" x="50%" width="50%" height="50%" fill="var(--star-2)" />
      <use href="#star" y="50%" width="50%" height="50%" fill="var(--star-3)" />
      <use href="#star" x="50%" y="50%" width="50%" height="50%" fill="var(--star-4)" />
    </symbol>
    <symbol id="fly" viewBox="0 0 24 24">
      <path d="m23 11.5l-3.05-1.13c-.26-1.15-.91-1.81-.91-1.81a4.19 4.19 0 0 0-5.93 0l-1.48 1.48L5 3c-1 4 0 8 2.45 11.22L2 19.5s8.89 2 14.07-2.05c2.76-2.16 3.38-3.42 3.77-4.75zm-5.29.22c-.39.39-1.03.39-1.42 0a.996.996 0 0 1 0-1.41c.39-.39 1.03-.39 1.42 0s.39 1.02 0 1.41" />
    </symbol>
    <symbol id="swim" viewBox="0 0 24 24">
      <path d="m12 20l.76-3c-3.26-.21-6.17-1.6-7.01-3.42c-.09.48-.22.92-.42 1.25C4.67 16 3.33 16 2 16c1.1 0 1.5-1.57 1.5-3.5S3.1 9 2 9c1.33 0 2.67 0 3.33 1.17c.2.33.33.77.42 1.25c.65-1.42 2.57-2.57 4.91-3.1L9 5c2 0 4 0 5.33.67c1.13.56 1.78 1.6 2.36 2.71c2.92.7 5.31 2.28 5.31 4.12c0 1.88-2.5 3.5-5.5 4.16c-.83 1.1-1.64 2.12-2.33 2.67c-.84.67-1.5.67-2.17.67m5-9a1 1 0 0 0-1 1a1 1 0 0 0 1 1a1 1 0 0 0 1-1a1 1 0 0 0-1-1" />
    </symbol>
  </defs>
</svg>
