<svg xmlns="http://www.w3.org/2000/svg" viewBox="0 0 95 82.3"><path d="M95 0H0l47.5 82.273zM54.504 56.531c-1.765 0-2.768.602-3.432 1-.418.251-.483.29-.866.29-.384 0-.447-.039-.865-.29-.663-.398-1.666-1-3.431-1-1.764 0-2.766.602-3.429 1.001-.417.251-.48.289-.862.289-.381 0-.445-.038-.861-.289-.508-.305-1.216-.726-2.309-.909l-3.359-5.817c.401.055.828.094 1.309.094 2.403 0 3.735-.799 4.707-1.383.745-.447 1.119-.672 2.139-.672 1.023 0 1.398.225 2.144.672.973.585 2.305 1.383 4.708 1.383s3.738-.798 4.711-1.382c.747-.448 1.122-.673 2.146-.673 1.025 0 1.4.225 2.147.673.339.203.725.431 1.181.643l-3.845 6.659a6.2 6.2 0 0 0-1.933-.289M27.944 38.43c1.179.633 2.696 1.223 5.064 1.223 3.065 0 4.71-.986 6.032-1.78 1.074-.644 1.783-1.069 3.468-1.069 1.683 0 2.392.425 3.466 1.069 1.321.793 2.966 1.78 6.031 1.78 3.066 0 4.712-.986 6.034-1.78 1.075-.644 1.784-1.069 3.47-1.069s2.395.425 3.47 1.07c.532.319 1.124.668 1.835.974l-4.012 6.948c-.388-.109-.7-.293-1.137-.555-.973-.583-2.307-1.382-4.711-1.382s-3.737.799-4.71 1.382c-.747.448-1.122.673-2.147.673-1.022 0-1.397-.225-2.144-.672-.972-.584-2.304-1.383-4.708-1.383-2.402 0-3.734.8-4.705 1.383-.746.447-1.12.672-2.141.672-1.022 0-1.396-.225-2.142-.672-.73-.438-1.663-.998-3.101-1.249zm-7.301-12.648c.354.187.705.396 1.083.623 1.627.976 3.652 2.192 7.403 2.192s5.777-1.216 7.404-2.192c1.434-.86 2.47-1.482 4.84-1.482s3.404.622 4.837 1.482c1.627.976 3.652 2.192 7.403 2.192 3.752 0 5.779-1.216 7.407-2.192 1.434-.86 2.47-1.482 4.841-1.482s3.408.622 4.842 1.482c.724.434 1.538.911 2.537 1.311l-3.895 6.747c-.657-.185-1.168-.486-1.802-.866-1.322-.793-2.968-1.78-6.034-1.78s-4.712.987-6.034 1.78c-1.074.644-1.784 1.07-3.47 1.07-1.684 0-2.393-.426-3.466-1.069-1.322-.794-2.967-1.781-6.031-1.781-3.066 0-4.711.987-6.033 1.781-1.074.643-1.783 1.069-3.467 1.069s-2.393-.426-3.467-1.069c-1.225-.736-2.744-1.628-5.4-1.755zm52.625-3.653c-1.628-.977-3.654-2.192-7.407-2.192-3.752 0-5.778 1.215-7.406 2.192-1.434.86-2.47 1.481-4.842 1.481-2.369 0-3.405-.621-4.837-1.481-1.627-.977-3.653-2.192-7.403-2.192-3.752 0-5.777 1.215-7.405 2.192-1.433.86-2.469 1.481-4.839 1.481-2.369 0-3.405-.621-4.837-1.481-1.568-.941-3.521-2.093-7.015-2.176l-3.82-6.617c1.071.344 1.93.847 2.89 1.424 2.027 1.216 4.324 2.595 8.747 2.595 4.424 0 6.721-1.379 8.749-2.595 1.755-1.053 3.141-1.884 6.184-1.884s4.43.831 6.185 1.884c2.027 1.216 4.325 2.595 8.749 2.595s6.723-1.379 8.751-2.595c1.755-1.053 3.141-1.884 6.185-1.884s4.43.831 6.186 1.884c1.043.625 2.164 1.291 3.602 1.793l-3.91 6.773c-.936-.262-1.654-.685-2.507-1.197M86.363 4.986l-4.108 7.117c-1.431-.326-2.443-.92-3.607-1.618-2.028-1.217-4.327-2.596-8.751-2.596-4.425 0-6.723 1.379-8.751 2.596-1.755 1.052-3.141 1.884-6.185 1.884-3.042 0-4.429-.832-6.184-1.884-2.028-1.217-4.326-2.596-8.75-2.596s-6.721 1.379-8.749 2.596c-1.755 1.052-3.141 1.884-6.184 1.884-3.041 0-4.427-.832-6.181-1.884-2.003-1.202-4.278-2.558-8.598-2.59L8.636 4.986zM42.009 62.79c1.52-.082 2.428-.617 3.04-.984.416-.251.48-.289.861-.289.383 0 .447.039.864.29.664.398 1.666 1 3.432 1 1.664 0 2.648-.534 3.311-.929L47.5 72.3z"/></svg>
